<svg xmlns="http://www.w3.org/2000/svg" width="64" height="64" viewBox="0 0 64 64" fill="none">
  <defs>
    <linearGradient id="sweep" x1="53.6" y1="19.5" x2="28" y2="14" gradientUnits="userSpaceOnUse">
      <stop stop-color="#2fd4a4" stop-opacity="0.75"/>
      <stop offset="1" stop-color="#2fd4a4" stop-opacity="0"/>
    </linearGradient>
  </defs>
  <circle cx="32" cy="32" r="29.5" fill="#0c1f19" stroke="#3d564d" stroke-width="1.5"/>
  <g fill="#57736a">
    <circle cx="55.6" cy="41.8" r="1.5"/><circle cx="41.8" cy="55.6" r="1.5"/>
    <circle cx="22.2" cy="55.6" r="1.5"/><circle cx="8.4" cy="41.8" r="1.5"/>
    <circle cx="8.4" cy="22.2" r="1.5"/><circle cx="22.2" cy="8.4" r="1.5"/>
    <circle cx="41.8" cy="8.4" r="1.5"/><circle cx="55.6" cy="22.2" r="1.5"/>
  </g>
  <g stroke="#1f4a3d" stroke-width="1">
    <circle cx="32" cy="32" r="18"/><circle cx="32" cy="32" r="9"/>
    <path d="M32 7v50M7 32h50" stroke-width="0.75" opacity="0.7"/>
  </g>
  <path d="M32 32 L32 7 A25 25 0 0 1 53.65 19.5 Z" fill="url(#sweep)"/>
  <path d="M32 32 L53.65 19.5" stroke="#2fd4a4" stroke-width="2" stroke-linecap="round"/>
  <circle cx="46.5" cy="24.5" r="2.6" fill="#2fd4a4"/>
  <circle cx="24" cy="44" r="2" fill="#2fd4a4" opacity="0.45"/>
  <circle cx="38" cy="50" r="1.5" fill="#2fd4a4" opacity="0.25"/>
</svg>
